<?xml version="1.0" encoding="UTF-8" standalone="no"?>
<!-- Created with Inkscape (http://www.inkscape.org/) -->

<svg
   width="600"
   height="400"
   viewBox="0 0 600 400"
   version="1.1"
   id="svg3471"
   inkscape:version="1.2.2 (732a01da63, 2022-12-09)"
   sodipodi:docname="drawing-3.svg"
   xml:space="preserve"
   xmlns:inkscape="http://www.inkscape.org/namespaces/inkscape"
   xmlns:sodipodi="http://sodipodi.sourceforge.net/DTD/sodipodi-0.dtd"
   xmlns="http://www.w3.org/2000/svg"
   xmlns:svg="http://www.w3.org/2000/svg"
   xmlns:rexsvg="http://www.rexcontrols.com/rexsvg"><sodipodi:namedview
     id="namedview3473"
     pagecolor="#ffffff"
     bordercolor="#000000"
     borderopacity="0.25"
     inkscape:showpageshadow="2"
     inkscape:pageopacity="0.0"
     inkscape:pagecheckerboard="0"
     inkscape:deskcolor="#d1d1d1"
     inkscape:document-units="mm"
     showgrid="false"
     inkscape:zoom="2.8284271"
     inkscape:cx="302.28815"
     inkscape:cy="220.44054"
     inkscape:window-width="2400"
     inkscape:window-height="1261"
     inkscape:window-x="2391"
     inkscape:window-y="-9"
     inkscape:window-maximized="1"
     inkscape:current-layer="svg3471"
     showguides="false"><sodipodi:guide
       position="102.83948,145.12208"
       orientation="1,0"
       id="guide5360"
       inkscape:locked="false" /><sodipodi:guide
       position="102.49782,122.91422"
       orientation="0,-1"
       id="guide5362"
       inkscape:locked="false" /><sodipodi:guide
       position="307.49347,207.30409"
       orientation="0,-1"
       id="guide257"
       inkscape:locked="false" /><sodipodi:guide
       position="282.5,179.5"
       orientation="1,0"
       id="guide259"
       inkscape:locked="false" /><sodipodi:guide
       position="232.40928,207.21143"
       orientation="1,0"
       id="guide371"
       inkscape:locked="false" /><sodipodi:guide
       position="333.87695,208.66097"
       orientation="1,0"
       id="guide397"
       inkscape:locked="false" /><sodipodi:guide
       position="256.5,272"
       orientation="1,0"
       id="guide399"
       inkscape:locked="false" /><sodipodi:guide
       position="308.26844,207.69461"
       orientation="1,0"
       id="guide401"
       inkscape:locked="false" /><sodipodi:guide
       position="492,262.5"
       orientation="1,0"
       id="guide6397"
       inkscape:locked="false" /><sodipodi:guide
       position="291,268"
       orientation="0,-1"
       id="guide6687"
       inkscape:locked="false" /><sodipodi:guide
       position="462.09428,204.13142"
       orientation="1,0"
       id="guide6758"
       inkscape:locked="false" /><sodipodi:guide
       position="536.69405,186.45375"
       orientation="1,0"
       id="guide6760"
       inkscape:locked="false" /></sodipodi:namedview><defs
     id="defs3468"><linearGradient
       id="linearGradient2407"
       inkscape:swatch="solid"><stop
         style="stop-color:#4d4d4d;stop-opacity:1;"
         offset="0"
         id="stop2405" /></linearGradient><linearGradient
       id="linearGradient4321"
       inkscape:swatch="solid"><stop
         style="stop-color:#000000;stop-opacity:1;"
         offset="0"
         id="stop4319" /></linearGradient><linearGradient
       id="linearGradient4259"
       inkscape:swatch="solid"><stop
         style="stop-color:#000000;stop-opacity:1;"
         offset="0"
         id="stop4257" /></linearGradient><linearGradient
       id="linearGradient4253"
       inkscape:swatch="solid"><stop
         style="stop-color:#000000;stop-opacity:1;"
         offset="0"
         id="stop4251" /></linearGradient><linearGradient
       id="linearGradient2179"
       inkscape:swatch="solid"><stop
         style="stop-color:#ffffff;stop-opacity:1;"
         offset="0"
         id="stop2177" /></linearGradient><linearGradient
       id="linearGradient1512"
       inkscape:swatch="gradient"><stop
         style="stop-color:#ff00ff;stop-opacity:1;"
         offset="0"
         id="stop1508" /><stop
         style="stop-color:#ff00ff;stop-opacity:0;"
         offset="1"
         id="stop1510" /></linearGradient><linearGradient
       id="linearGradient1467"
       inkscape:swatch="solid"><stop
         style="stop-color:#ff00ff;stop-opacity:1;"
         offset="0"
         id="stop1465" /></linearGradient><linearGradient
       id="linearGradient15327"
       inkscape:swatch="solid"><stop
         style="stop-color:#00ffff;stop-opacity:1;"
         offset="0"
         id="stop15325" /></linearGradient><rect
       x="326.62925"
       y="55.082448"
       width="201.4858"
       height="60.8806"
       id="rect15035" /><linearGradient
       id="linearGradient13227"
       inkscape:swatch="solid"><stop
         style="stop-color:#e8fffe;stop-opacity:1;"
         offset="0"
         id="stop13225" /></linearGradient><linearGradient
       id="linearGradient12907"
       inkscape:swatch="solid"><stop
         style="stop-color:#800000;stop-opacity:1;"
         offset="0"
         id="stop12905" /></linearGradient><linearGradient
       id="linearGradient12876"
       inkscape:swatch="solid"><stop
         style="stop-color:#4c4c4c;stop-opacity:1;"
         offset="0"
         id="stop12874" /></linearGradient><linearGradient
       id="linearGradient11777"
       inkscape:swatch="solid"><stop
         style="stop-color:#000000;stop-opacity:1;"
         offset="0"
         id="stop11775" /></linearGradient><linearGradient
       id="linearGradient11718"
       inkscape:swatch="solid"><stop
         style="stop-color:#02b800;stop-opacity:0.36078432;"
         offset="0"
         id="stop11716" /></linearGradient><linearGradient
       id="linearGradient8945"
       inkscape:swatch="solid"><stop
         style="stop-color:#008080;stop-opacity:1;"
         offset="0"
         id="stop8943" /></linearGradient><linearGradient
       id="linearGradient8939"
       inkscape:swatch="solid"><stop
         style="stop-color:#1a1a1a;stop-opacity:1;"
         offset="0"
         id="stop8937" /></linearGradient><linearGradient
       id="linearGradient8931"
       inkscape:swatch="solid"><stop
         style="stop-color:#1a1a1a;stop-opacity:1;"
         offset="0"
         id="stop8929" /></linearGradient><linearGradient
       id="SVGID_3_"
       gradientUnits="userSpaceOnUse"
       x1="6.9839001"
       y1="76.408203"
       x2="21.060499"
       y2="76.408203"
       gradientTransform="matrix(0.8615431,2.0293841e-7,2.6017881e-7,-0.6720001,234.09504,191.65556)">
		<stop
   offset="0.01"
   style="stop-color:#00FF00"
   id="stop919" />
		<stop
   offset="0.51"
   style="stop-color:#ABFFCC"
   id="stop921" />
		<stop
   offset="1"
   style="stop-color:#00FF00"
   id="stop923" />
	</linearGradient><linearGradient
       id="SVGID_1_"
       gradientUnits="userSpaceOnUse"
       x1="6.9839001"
       y1="42.173801"
       x2="21.060499"
       y2="42.173801"
       gradientTransform="matrix(0.8615431,2.0293841e-7,2.6017881e-7,-0.6720001,234.09504,191.65556)">
		<stop
   offset="0.01"
   style="stop-color:#4D4D4D"
   id="stop882" />
		<stop
   offset="0.51"
   style="stop-color:#F5F5F5"
   id="stop884" />
		<stop
   offset="1"
   style="stop-color:#4D4D4D"
   id="stop886" />
	</linearGradient><linearGradient
       id="SVGID_4_"
       gradientUnits="userSpaceOnUse"
       x1="0"
       y1="17.008801"
       x2="34.005901"
       y2="17.008801"
       gradientTransform="matrix(0.5041283,1.5234211e-7,1.5224253e-7,-0.50445805,303.56218,192.17357)">
		<stop
   offset="0.01"
   style="stop-color:#4D4D4D"
   id="stop1616" />
		<stop
   offset="0.51"
   style="stop-color:#F5F5F5"
   id="stop1618" />
		<stop
   offset="1"
   style="stop-color:#4D4D4D"
   id="stop1620" />
	</linearGradient><linearGradient
       id="SVGID_3_-8"
       gradientUnits="userSpaceOnUse"
       x1="0"
       y1="44.257801"
       x2="34.005901"
       y2="44.257801"
       gradientTransform="matrix(0.5041283,1.5234211e-7,1.5224253e-7,-0.50445805,303.56218,192.17357)">
		<stop
   offset="0.01"
   style="stop-color:#4D4D4D"
   id="stop1607" />
		<stop
   offset="0.51"
   style="stop-color:#F5F5F5"
   id="stop1609" />
		<stop
   offset="1"
   style="stop-color:#4D4D4D"
   id="stop1611" />
	</linearGradient><linearGradient
       id="SVGID_2_"
       gradientUnits="userSpaceOnUse"
       x1="3.3778999"
       y1="40.879902"
       x2="30.627899"
       y2="40.879902"
       gradientTransform="matrix(0.5041283,1.5234211e-7,1.5224253e-7,-0.50445805,303.56218,192.17357)">
		<stop
   offset="0.01"
   style="stop-color:#4D4D4D"
   id="stop1598" />
		<stop
   offset="0.51"
   style="stop-color:#F5F5F5"
   id="stop1600" />
		<stop
   offset="1"
   style="stop-color:#4D4D4D"
   id="stop1602" />
	</linearGradient><linearGradient
       id="SVGID_1_-3"
       gradientUnits="userSpaceOnUse"
       x1="3.3778999"
       y1="97.180702"
       x2="30.627899"
       y2="97.180702"
       gradientTransform="matrix(0.5041283,1.5234211e-7,1.5224253e-7,-0.50445805,303.56218,192.17357)">
		<stop
   offset="0.01"
   style="stop-color:#FFFF00"
   id="stop1584" />
		<stop
   offset="0.5"
   style="stop-color:#FFFFBD"
   id="stop1586" />
		<stop
   offset="1"
   style="stop-color:#FFFF00"
   id="stop1588" />
	</linearGradient><linearGradient
       id="SVGID_1_-6"
       gradientUnits="userSpaceOnUse"
       x1="3.3778999"
       y1="97.180702"
       x2="30.627899"
       y2="97.180702"
       gradientTransform="matrix(0.53077906,1.5566379e-7,1.6029083e-7,-0.51545729,303.78153,192.15936)">
		<stop
   offset="0.01"
   style="stop-color:#FFFF00"
   id="stop1311" />
		<stop
   offset="0.5"
   style="stop-color:#FFFFBD"
   id="stop1313" />
		<stop
   offset="1"
   style="stop-color:#FFFF00"
   id="stop1315" />
	</linearGradient><linearGradient
       id="SVGID_2_-0"
       gradientUnits="userSpaceOnUse"
       x1="3.3778999"
       y1="40.879902"
       x2="30.627899"
       y2="40.879902"
       gradientTransform="matrix(0.53077906,1.5566379e-7,1.6029083e-7,-0.51545729,303.78153,192.15936)">
		<stop
   offset="0.01"
   style="stop-color:#4D4D4D"
   id="stop1325" />
		<stop
   offset="0.51"
   style="stop-color:#F5F5F5"
   id="stop1327" />
		<stop
   offset="1"
   style="stop-color:#4D4D4D"
   id="stop1329" />
	</linearGradient><linearGradient
       id="SVGID_3_-3"
       gradientUnits="userSpaceOnUse"
       x1="0"
       y1="44.257801"
       x2="34.005901"
       y2="44.257801"
       gradientTransform="matrix(0.53077906,1.5566379e-7,1.6029083e-7,-0.51545729,303.78153,192.15936)">
		<stop
   offset="0.01"
   style="stop-color:#4D4D4D"
   id="stop1334" />
		<stop
   offset="0.51"
   style="stop-color:#F5F5F5"
   id="stop1336" />
		<stop
   offset="1"
   style="stop-color:#4D4D4D"
   id="stop1338" />
	</linearGradient><linearGradient
       id="SVGID_4_-4"
       gradientUnits="userSpaceOnUse"
       x1="0"
       y1="17.008801"
       x2="34.005901"
       y2="17.008801"
       gradientTransform="matrix(0.53077906,1.5566379e-7,1.6029083e-7,-0.51545729,303.78153,192.15936)">
		<stop
   offset="0.01"
   style="stop-color:#4D4D4D"
   id="stop1343" />
		<stop
   offset="0.51"
   style="stop-color:#F5F5F5"
   id="stop1345" />
		<stop
   offset="1"
   style="stop-color:#4D4D4D"
   id="stop1347" />
	</linearGradient></defs><g
     inkscape:label="Layer 1"
     inkscape:groupmode="layer"
     id="layer1"
     style="stroke-width:0.864391" /><g
     id="g4637"
     transform="matrix(1.1554656,0,0,1.1583031,-12.833337,-37.447399)"
     style="stroke-width:0.864391"><path
       style="fill:#7f7f7f;stroke:#4c4c4c;stroke-width:1.16873"
       d="m 102.68932,277.95408 h 286.18431 l 0.12022,19.5617 -287.40968,0.0451 z"
       id="path515"
       sodipodi:nodetypes="ccccc" /><path
       style="fill:#7f7f7f;stroke:#4c4c4c;stroke-width:1.16873"
       d="m 107.55167,244.27145 -14.587058,14.73615 24.058888,32.85792 19.00768,-18.82349 2.77849,-2.80688 2.08386,-4.21033 0.69462,-3.50861 0.69463,-4.21033 -0.69463,-3.50861 -0.69462,-4.21033 -2.08386,-3.50861 -2.77849,-2.80688 -2.77849,-2.80689 -3.47311,-2.10516 -4.16773,-0.70173 -3.47311,-0.70172 -4.16774,0.70172 -3.47311,0.70173 -4.16773,2.10516 z"
       id="path517"
       sodipodi:nodetypes="cccccccccccccccccccc" /><ellipse
       style="fill:#b2b2b2;stroke:#4c4c4c;stroke-width:1.16873"
       cx="388.87366"
       cy="277.25238"
       id="circle519"
       rx="20.144041"
       ry="20.349926" /><ellipse
       style="fill:#b2b2b2;stroke:#4c4c4c;stroke-width:1.16873"
       cx="102.68931"
       cy="277.25238"
       id="circle521"
       rx="20.144041"
       ry="20.349926" /><path
       style="fill:#000000;stroke:#4c4c4c;stroke-width:1.16873"
       d="m 423.60473,271.63859 2.77849,-3.50861 2.08387,-3.50861 0.69462,-3.50861 0.69462,-4.21032 -1.38924,-7.71894 -4.16774,-7.01722 -6.94622,-4.21033 -7.64084,-1.40344 H 123.52798 l -4.16773,0.70172 -3.47311,0.70172 -3.47311,2.10517 -3.47311,2.10516 -19.974017,20.12271 2.608464,-1.87795 3.473111,-2.10516 4.167734,-0.70172 3.473108,-0.70172 h 286.18431 l 4.16773,0.70172 3.47311,0.70172 4.16773,2.10516 2.77849,2.80689 2.77849,2.80689 2.08386,3.5086 0.69463,4.21033 0.69462,4.21033 -0.69462,4.91205 -2.08387,4.91205 -3.53322,3.81622 -4.82595,3.28764 z"
       id="path523"
       sodipodi:nodetypes="ccccccccccccccccccccccccccccccccc" /></g><g
     id="ob"
     transform="translate(-6.1498694,15.374674)"><path
       id="object_body"
       style="fill:#cccccc"
       d="m 123.67825,212.84052 h 39.16887 c 1.73124,0 3.12499,0.0394 3.12499,0.0884 v 18.90881 c 0,0.049 -1.39375,0.0884 -3.12499,0.0884 h -39.16887 c -1.73125,0 -3.125,-0.0394 -3.125,-0.0884 V 212.9289 c 0,-0.049 1.39375,-0.0884 3.125,-0.0884 z" /><path
       id="object_under"
       style="fill:#cccccc"
       d="m 165.48893,231.80531 a 22.226252,3.9862299 0 0 1 -22.22625,3.98623 22.226252,3.9862299 0 0 1 -22.22625,-3.98623 22.226252,3.9862299 0 0 1 22.22625,-3.98623 22.226252,3.9862299 0 0 1 22.22625,3.98623 z" /><path
       id="object_ontop"
       style="fill:#4d4d4d"
       d="m 165.97212,213.44449 a 22.588636,6.6437163 0 0 1 -22.58864,6.64371 22.588636,6.6437163 0 0 1 -22.58863,-6.64371 22.588636,6.6437163 0 0 1 22.58863,-6.64372 22.588636,6.6437163 0 0 1 22.58864,6.64372 z" /></g><g
     id="pulley1"><ellipse
       fill="#cccccc"
       cx="105.89919"
       cy="283.93863"
       id="circle11270-4-6-4-2"
       style="fill:#999999;stroke-width:3.78292"
       rx="20.54394"
       ry="20.543941" /><ellipse
       fill="#4c4c4c"
       cx="105.89874"
       cy="283.91531"
       id="circle11272-8-0-7-4"
       style="fill:#666666;stroke-width:3.78292"
       rx="5.8632874"
       ry="5.863287" /><ellipse
       fill="#b2b2b2"
       cx="105.89874"
       cy="283.93863"
       id="circle11274-3-6-0-2"
       style="fill:#b3b3b3;stroke-width:3.78292"
       rx="5.4332342"
       ry="5.4332337" /><path
       fill="#4c4c4c"
       d="m 114.04985,297.88188 -2.9075,-5.0527 c 0,0 3.76718,-2.09736 4.70941,-6.1016 0.95789,-4.07111 -0.99175,-7.96021 -0.99175,-7.96021 l 5.10012,-2.90752 c 0,0 2.81271,4.37969 1.9543,10.67726 -0.0529,0.38686 -0.24698,1.14497 -0.33362,1.5255 -1.48614,6.51556 -7.53102,9.81927 -7.53102,9.81927 z"
       id="path11276-6-8-2-3"
       style="fill:#4d4d4d;stroke-width:3.78292" /><path
       fill="#4c4c4c"
       d="m 114.04012,269.90979 -2.90158,5.05567 c 0,0 -3.70838,-2.19894 -7.64277,-0.99683 -3.999578,1.22201 -6.377978,4.86476 -6.377978,4.86476 l -5.079791,-2.94265 c 0,0 2.367826,-4.63492 8.240839,-7.06413 0.36105,-0.14941 1.11366,-0.36317 1.48572,-0.48001 6.37797,-1.99662 12.27556,1.56318 12.27556,1.56319 z"
       id="path11278-5-6-1-20"
       style="fill:#4d4d4d;stroke-width:3.78292" /><path
       fill="#4c4c4c"
       d="m 89.834377,283.96357 5.82902,-0.0255 c 0,0 -0.04226,4.31111 2.970585,7.11196 3.062848,2.84741 7.407408,3.07853 7.407408,3.07853 l 10e-4,5.87048 c 0,0 -5.19747,0.27595 -10.244258,-3.58732 -0.310666,-0.23745 -0.873223,-0.78137 -1.16063,-1.04465 -4.926133,-4.51641 -4.803827,-11.40403 -4.803827,-11.40403 z"
       id="path11280-1-2-4-2"
       style="fill:#4d4d4d;stroke-width:3.78292" /></g><g
     id="pulley2"><ellipse
       fill="#cccccc"
       cx="436.43179"
       cy="283.86786"
       id="circle11270-4-6-4-2-7"
       style="fill:#999999;stroke-width:3.78292"
       rx="20.54394"
       ry="20.543941" /><ellipse
       fill="#4c4c4c"
       cx="436.43134"
       cy="283.84454"
       id="circle11272-8-0-7-4-2"
       style="fill:#666666;stroke-width:3.78292"
       rx="5.8632874"
       ry="5.863287" /><ellipse
       fill="#b2b2b2"
       cx="436.43134"
       cy="283.86786"
       id="circle11274-3-6-0-2-9"
       style="fill:#b3b3b3;stroke-width:3.78292"
       rx="5.4332342"
       ry="5.4332337" /><path
       fill="#4c4c4c"
       d="m 444.58244,297.81114 -2.9075,-5.0527 c 0,0 3.76718,-2.09736 4.70941,-6.1016 0.95789,-4.07111 -0.99175,-7.96021 -0.99175,-7.96021 l 5.10012,-2.90752 c 0,0 2.81271,4.37969 1.9543,10.67726 -0.0529,0.38686 -0.24698,1.14497 -0.33362,1.5255 -1.48614,6.51556 -7.53102,9.81927 -7.53102,9.81927 z"
       id="path11276-6-8-2-3-3"
       style="fill:#4d4d4d;stroke-width:3.78292" /><path
       fill="#4c4c4c"
       d="m 444.57271,269.83905 -2.90158,5.05567 c 0,0 -3.70838,-2.19894 -7.64277,-0.99683 -3.99958,1.22201 -6.37798,4.86476 -6.37798,4.86476 L 422.57059,275.82 c 0,0 2.36783,-4.63492 8.24084,-7.06413 0.36105,-0.14941 1.11366,-0.36317 1.48572,-0.48001 6.37797,-1.99662 12.27556,1.56318 12.27556,1.56319 z"
       id="path11278-5-6-1-20-9"
       style="fill:#4d4d4d;stroke-width:3.78292" /><path
       fill="#4c4c4c"
       d="m 420.36697,283.89283 5.82902,-0.0255 c 0,0 -0.0423,4.31111 2.97058,7.11196 3.06285,2.84741 7.40741,3.07853 7.40741,3.07853 l 10e-4,5.87048 c 0,0 -5.19747,0.27595 -10.24426,-3.58732 -0.31066,-0.23745 -0.87322,-0.78137 -1.16063,-1.04465 -4.92613,-4.51641 -4.80383,-11.40403 -4.80383,-11.40403 z"
       id="path11280-1-2-4-2-6"
       style="fill:#4d4d4d;stroke-width:3.78292" /></g><g
     id="ind"><path
       fill="url(#SVGID_1_)"
       d="m 240.11206,191.65556 h 12.12795 l 10e-6,-56.68186 h -12.12795 z"
       id="ind_body"
       style="fill:#808080;stroke-width:0.568889" /><path
       fill="#7f7f7f"
       d="m 234.09677,176.3689 h 24.15853 v -3.55689 h -24.15853 z"
       id="path903"
       style="stroke-width:0.568889;fill:#666666" /><path
       fill="#7f7f7f"
       d="m 234.09677,185.82864 24.15853,1e-5 v -3.5569 h -24.15853 z"
       id="path905"
       style="stroke-width:0.568889;fill:#666666" /><path
       fill="#ffffff"
       stroke="#4c4c4c"
       stroke-width="0.142223"
       d="m 238.55955,185.82865 h 15.13559 v -3.5569 h -15.13559 z"
       id="path907"
       style="fill:#b3b3b3" /><path
       fill="#ffffff"
       stroke="#4c4c4c"
       stroke-width="0.142223"
       d="m 238.55958,176.3689 h 15.13556 l 3e-5,-3.55689 h -15.13559 z"
       id="path909"
       style="fill:#b3b3b3" /><path
       fill="none"
       stroke="#4c4c4c"
       stroke-width="0.142223"
       d="m 240.11207,151.54656 h 12.12795 v -5.90218 h -12.12795 v 5.90218"
       id="path912cap"
       style="fill:#cccccc" /><path
       fill="none"
       stroke="#4c4c4c"
       stroke-width="0.142223"
       d="m 240.11207,150.33696 12.12795,1e-5 V 146.856 h -12.12795 v 3.48096"
       id="capss"
       style="fill:#cccccc" /><path
       fill="none"
       stroke="#4c4c4c"
       stroke-width="0.142223"
       d="m 240.11207,149.20128 h 12.12795 v -1.21161 l -12.12795,-1e-5 v 1.21162"
       id="pathcap"
       style="fill:#cccccc" /><path
       fill="url(#SVGID_3_)"
       stroke="#4c4c4c"
       stroke-width="0.142223"
       d="m 240.11207,144.43344 12.12795,1e-5 v -8.24747 h -12.12795 z"
       id="ind_head"
       style="fill:#ff0000" /><path
       fill="none"
       stroke="#ffffff"
       stroke-width="0.142223"
       d="m 241.56723,138.5306 h 9.11942"
       id="path928" /><path
       fill="none"
       stroke="#ffffff"
       stroke-width="0.142223"
       d="m 241.56723,139.74221 h 9.11942"
       id="pathcaps" /></g><g
     id="Machine_Name"
     transform="matrix(1.2421492,0,0,1.2421492,-12.249342,-14.786314)"
     style="stroke-width:0.805056"><rect
       style="fill:#ff0000;stroke:none;stroke-width:0.49859"
       id="Machine_name"
       width="108.04478"
       height="33.726337"
       x="50.585938"
       y="61.062836"
       rx="4.2687659"
       ry="4.1361542" /><rect
       inkscape:label=""
       rexsvg:tag="textbox"
       rx="8.3226795"
       ry="5.1645956"
       y="73.971573"
       x="52.893986"
       height="18.249285"
       width="101.95332"
       id="alarm-77-5"
       style="fill:#333333;fill-opacity:1;fill-rule:nonzero;stroke:#00ff00;stroke-width:1.01781;stroke-linecap:butt;stroke-linejoin:round;stroke-miterlimit:4;stroke-dasharray:none;stroke-dashoffset:0;stroke-opacity:1" /><text
       inkscape:label=""
       id="R802_PT_P19_unit-1"
       y="80.517891"
       x="67.255539"
       style="font-weight:bold;font-size:10.2341px;font-family:Tahoma;fill:#ffffff;stroke-width:0.466579"
       transform="scale(0.92161882,1.0850473)"><tspan
         style="fill:#ffffff;stroke-width:0.466579"
         id="tspan680">Machine I</tspan></text><text
       inkscape:label=""
       id="tag-08-3"
       y="71.258163"
       x="53.751408"
       style="font-size:9.28427px;font-family:Tahoma;fill:#ffffff;stroke-width:0.423276"
       transform="scale(1.0159043,0.9843447)">Machine Name</text></g><g
     id="Total"
     transform="matrix(1.254559,0,0,1.254559,-54.301806,-40.588922)"
     style="stroke-width:0.797093"><rect
       style="fill:#008080;stroke:none;stroke-width:0.493658"
       id="Machine_namebody-7"
       width="74.705399"
       height="33.726337"
       x="406.14731"
       y="78.136833"
       rx="4.2265401"
       ry="4.0952401" /><rect
       inkscape:label=""
       rexsvg:tag="textbox"
       rx="8.2403526"
       ry="5.1135082"
       y="91.04557"
       x="408.45535"
       height="18.249285"
       width="69.580307"
       id="alarm-77-5-5"
       style="fill:#333333;fill-opacity:1;fill-rule:nonzero;stroke:#00ff00;stroke-width:1.00774;stroke-linecap:butt;stroke-linejoin:round;stroke-miterlimit:4;stroke-dasharray:none;stroke-dashoffset:0;stroke-opacity:1" /><text
       inkscape:label=""
       id="pcs"
       y="94.834106"
       x="489.30591"
       style="font-weight:bold;font-size:10.2341px;font-family:Tahoma;fill:#ffffff;stroke-width:0.461964"
       transform="scale(0.92161881,1.0850473)"> pcs<tspan
   style="fill:#00ffff;stroke-width:0.461964"
   id="tspan13680-7"> </tspan></text><text
       inkscape:label=""
       id="G"
       y="88.603699"
       x="403.74634"
       style="font-size:9.28427px;font-family:Tahoma;fill:#ffffff;stroke-width:0.419089"
       transform="scale(1.0159043,0.98434469)">Total</text><text
       xml:space="preserve"
       style="font-style:normal;font-variant:normal;font-weight:normal;font-stretch:normal;font-size:14px;font-family:Tahoma;-inkscape-font-specification:Tahoma;fill:#ffffff;fill-opacity:0.995951;fill-rule:evenodd;stroke:none;stroke-width:1.09961"
       x="431.58145"
       y="104.8521"
       id="output"><tspan
         sodipodi:role="line"
         id="tspan4481"
         x="431.58145"
         y="104.8521"
         style="font-size:14px;fill:none;stroke-width:1.09961">0</tspan></text></g><g
     id="Good"
     transform="matrix(1.254559,0,0,1.254559,-124.55711,-78.225693)"
     style="stroke-width:0.797093"><rect
       style="fill:#c8ab37;stroke:none;stroke-width:0.493658"
       id="Machine_namebody-7-3"
       width="74.705399"
       height="33.726337"
       x="462.64731"
       y="150.63683"
       rx="4.2265401"
       ry="4.0952401" /><rect
       inkscape:label=""
       rexsvg:tag="textbox"
       rx="8.2403526"
       ry="5.1135082"
       y="163.54556"
       x="464.95535"
       height="18.249285"
       width="69.580307"
       id="alarm-77-5-5-5"
       style="fill:#333333;fill-opacity:1;fill-rule:nonzero;stroke:#00ff00;stroke-width:1.00774;stroke-linecap:butt;stroke-linejoin:round;stroke-miterlimit:4;stroke-dasharray:none;stroke-dashoffset:0;stroke-opacity:1" /><text
       inkscape:label=""
       id="pcs-2"
       y="161.65147"
       x="550.61108"
       style="font-weight:bold;font-size:10.2341px;font-family:Tahoma;fill:#ffffff;stroke-width:0.461964"
       transform="scale(0.92161881,1.0850473)"> pcs<tspan
   style="fill:#00ffff;stroke-width:0.461964"
   id="tspan13680-7-6"> </tspan></text><text
       inkscape:label=""
       id="head"
       y="162.25676"
       x="459.36182"
       style="font-size:9.28427px;font-family:Tahoma;fill:#ffffff;stroke-width:0.419089"
       transform="scale(1.0159043,0.98434469)">Good</text><text
       xml:space="preserve"
       style="font-style:normal;font-variant:normal;font-weight:normal;font-stretch:normal;font-size:14px;font-family:Tahoma;-inkscape-font-specification:Tahoma;fill:#ffffff;fill-opacity:0.995951;fill-rule:evenodd;stroke:none;stroke-width:1.09961"
       x="488.5"
       y="177"
       id="good"><tspan
         sodipodi:role="line"
         id="tspan6393"
         x="488.5"
         y="177"
         style="stroke-width:1.09961">0</tspan></text></g><text
     xml:space="preserve"
     style="font-style:normal;font-variant:normal;font-weight:normal;font-stretch:normal;font-size:14px;font-family:Tahoma;-inkscape-font-specification:Tahoma;fill:#00ffff;fill-opacity:0.995951;fill-rule:evenodd;stroke:none;stroke-width:1.37953"
     x="235.88388"
     y="131.05806"
     id="text6556"><tspan
       sodipodi:role="line"
       id="tspan6554"
       x="235.88388"
       y="131.05806"
       style="fill:#00ffff">Ind</tspan></text><text
     xml:space="preserve"
     style="font-style:normal;font-variant:normal;font-weight:normal;font-stretch:normal;font-size:14px;font-family:Tahoma;-inkscape-font-specification:Tahoma;fill:#00ffff;fill-opacity:0.995951;fill-rule:evenodd;stroke:none;stroke-width:1.37953"
     x="307.12061"
     y="130.85886"
     id="text6556-1"><tspan
       sodipodi:role="line"
       id="tspan6554-7"
       x="307.12061"
       y="130.85886"
       style="fill:#00ffff">Cap</tspan></text><text
     xml:space="preserve"
     style="font-style:normal;font-variant:normal;font-weight:normal;font-stretch:normal;font-size:14px;font-family:Tahoma;-inkscape-font-specification:Tahoma;fill:#00ffff;fill-opacity:0.995951;fill-rule:evenodd;stroke:none;stroke-width:1.37953"
     x="271.50714"
     y="130.25717"
     id="text6556-1-8"><tspan
       sodipodi:role="line"
       id="tspan6554-7-0"
       x="271.50714"
       y="130.25717"
       style="fill:#00ffff">Opt</tspan></text><g
     id="Bad"
     transform="matrix(1.254559,0,0,1.254559,-124.55711,-78.225693)"
     style="stroke-width:0.797093"><rect
       style="fill:#782121;stroke:none;stroke-width:0.493658"
       id="Machine_namebody-7-5"
       width="74.705399"
       height="33.726337"
       x="461.86469"
       y="193.85466"
       rx="4.2265401"
       ry="4.0952401" /><rect
       inkscape:label=""
       rexsvg:tag="textbox"
       rx="8.2403526"
       ry="5.1135082"
       y="206.7634"
       x="464.17273"
       height="18.249285"
       width="69.580307"
       id="alarm-77-5-5-6"
       style="fill:#333333;fill-opacity:1;fill-rule:nonzero;stroke:#00ff00;stroke-width:1.00774;stroke-linecap:butt;stroke-linejoin:round;stroke-miterlimit:4;stroke-dasharray:none;stroke-dashoffset:0;stroke-opacity:1" /><text
       inkscape:label=""
       id="pcs-5"
       y="201.48183"
       x="549.7619"
       style="font-weight:bold;font-size:10.2341px;font-family:Tahoma;fill:#ffffff;stroke-width:0.461964"
       transform="scale(0.92161881,1.0850473)"> pcs<tspan
   style="fill:#00ffff;stroke-width:0.461964"
   id="tspan13680-7-3"> </tspan></text><text
       inkscape:label=""
       id="G-3"
       y="206.16193"
       x="458.59146"
       style="font-size:9.28427px;font-family:Tahoma;fill:#ffffff;stroke-width:0.419089"
       transform="scale(1.0159043,0.98434469)">Defect</text><text
       xml:space="preserve"
       style="font-style:normal;font-variant:normal;font-weight:normal;font-stretch:normal;font-size:14px;font-family:Tahoma;-inkscape-font-specification:Tahoma;fill:#ffffff;fill-opacity:0.995951;fill-rule:evenodd;stroke:none;stroke-width:1.09961"
       x="488.25723"
       y="219.9102"
       id="defect"><tspan
         sodipodi:role="line"
         id="tspan6762"
         x="488.25723"
         y="219.9102"
         style="stroke-width:1.09961">0</tspan></text></g><g
     id="capcitive"
     transform="matrix(0.65481785,0,0,0.51860586,307.59371,133.92953)"
     style="stroke-width:0.976224"><g
       id="Group_Sensor_Yellow_Part"
       transform="matrix(0.9999999,3.019916e-7,3.019916e-7,-0.9999999,0,112)"
       style="stroke-width:0.976224">
	<linearGradient
   id="SVGID_1_-8"
   gradientUnits="userSpaceOnUse"
   x1="5.0688"
   y1="41.498001"
   x2="26.2402"
   y2="41.498001">
		<stop
   offset="0.01"
   style="stop-color:#FFFF00"
   id="stop7741" />
		<stop
   offset="0.5"
   style="stop-color:#FFFFBD"
   id="stop7743" />
		<stop
   offset="1"
   style="stop-color:#FFFF00"
   id="stop7745" />
	</linearGradient>
	<path
   fill="url(#SVGID_1_)"
   stroke="#4c4c4c"
   stroke-width="0.244056"
   d="M 5.069,0 H 26.24 V 82.996 H 5.069 Z"
   id="cap_body"
   style="fill:#808080;fill-opacity:1" />
</g><g
       id="Group_Tip"
       transform="matrix(0.9999999,3.019916e-7,3.019916e-7,-0.9999999,0,112)"
       style="fill:#4d4d4d;stroke-width:0.976224">
	<path
   fill="#ffff00"
   stroke="#4c4c4c"
   stroke-width="0.244056"
   d="m 8.672,110.698 1.802,1.802 10.584,-0.113 1.803,-1.688 z"
   id="path7751"
   style="fill:#4d4d4d" />
</g><g
       id="cap_"
       transform="matrix(0.9999999,3.019916e-7,3.019916e-7,-0.9999999,0,112)"
       style="fill:#ececec;stroke-width:0.976224">
	<path
   fill="none"
   stroke="#4c4c4c"
   stroke-width="0.244056"
   d="M 5.069,77.814 H 26.24"
   id="path7754"
   style="fill:#b3b3b3" />
	<path
   fill="none"
   stroke="#4c4c4c"
   stroke-width="0.244056"
   d="M 5.069,75.113 H 26.24"
   id="path7756"
   style="fill:#b3b3b3" />
	<path
   fill="none"
   stroke="#4c4c4c"
   stroke-width="0.244056"
   d="M 5.069,46.847 H 26.24"
   id="path7758"
   style="fill:#b3b3b3" />
	<path
   fill="none"
   stroke="#4c4c4c"
   stroke-width="0.244056"
   d="M 5.069,44.144 H 26.24"
   id="path7760"
   style="fill:#b3b3b3" />
	<path
   fill="none"
   stroke="#4c4c4c"
   stroke-width="0.244056"
   d="M 5.069,41.667 H 26.24"
   id="path7762"
   style="fill:#b3b3b3" />
	<path
   fill="none"
   stroke="#4c4c4c"
   stroke-width="0.244056"
   d="M 5.069,39.077 H 26.24"
   id="path7764"
   style="fill:#b3b3b3" />
	<path
   fill="none"
   stroke="#4c4c4c"
   stroke-width="0.244056"
   d="M 5.069,36.486 H 26.24"
   id="path7766"
   style="fill:#b3b3b3" />
	<path
   fill="none"
   stroke="#4c4c4c"
   stroke-width="0.244056"
   d="M 5.069,33.896 H 26.24"
   id="path7768"
   style="fill:#b3b3b3" />
	<path
   fill="none"
   stroke="#4c4c4c"
   stroke-width="0.244056"
   d="M 5.069,13.063 H 26.24"
   id="path7770"
   style="fill:#b3b3b3" />
	<path
   fill="none"
   stroke="#4c4c4c"
   stroke-width="0.244056"
   d="M 5.069,10.585 H 26.24"
   id="path7772"
   style="fill:#b3b3b3" />
	<path
   fill="none"
   stroke="#4c4c4c"
   stroke-width="0.244056"
   d="M 5.069,7.996 H 26.24"
   id="path7774"
   style="fill:#b3b3b3" />
	<path
   fill="none"
   stroke="#4c4c4c"
   stroke-width="0.244056"
   d="M 5.069,5.293 H 26.24"
   id="path7776"
   style="fill:#b3b3b3" />
	<path
   fill="none"
   stroke="#4c4c4c"
   stroke-width="0.244056"
   d="M 5.069,2.703 H 26.24"
   id="path7778"
   style="fill:#b3b3b3" />
	<path
   fill="none"
   stroke="#4c4c4c"
   stroke-width="0.244056"
   d="M 5.069,72.748 H 26.24"
   id="path7780"
   style="fill:#b3b3b3" />
	<path
   fill="none"
   stroke="#4c4c4c"
   stroke-width="0.244056"
   d="M 5.069,70.045 H 26.24"
   id="path7782"
   style="fill:#b3b3b3" />
	<path
   fill="none"
   stroke="#4c4c4c"
   stroke-width="0.244056"
   d="M 5.069,67.455 H 26.24"
   id="path7784"
   style="fill:#b3b3b3" />
	<path
   fill="none"
   stroke="#4c4c4c"
   stroke-width="0.244056"
   d="M 5.069,64.865 H 26.24"
   id="path7786"
   style="fill:#b3b3b3" />
	<path
   fill="none"
   stroke="#4c4c4c"
   stroke-width="0.244056"
   d="M 5.069,62.387 H 26.24"
   id="path7788"
   style="fill:#b3b3b3" />
	<path
   fill="none"
   stroke="#4c4c4c"
   stroke-width="0.244056"
   d="M 5.069,59.91 H 26.24"
   id="path7790"
   style="fill:#b3b3b3" />
	<path
   fill="none"
   stroke="#4c4c4c"
   stroke-width="0.244056"
   d="M 5.069,57.32 H 26.24"
   id="path7792"
   style="fill:#b3b3b3" />
	<path
   fill="none"
   stroke="#4c4c4c"
   stroke-width="0.244056"
   d="M 5.069,54.729 H 26.24"
   id="path7794"
   style="fill:#b3b3b3" />
	<path
   fill="none"
   stroke="#4c4c4c"
   stroke-width="0.244056"
   d="M 5.069,52.027 H 26.24"
   id="path7796"
   style="fill:#b3b3b3" />
	<path
   fill="none"
   stroke="#4c4c4c"
   stroke-width="0.244056"
   d="M 5.069,49.437 H 26.24"
   id="path7798"
   style="fill:#b3b3b3" />
	<path
   fill="none"
   stroke="#4c4c4c"
   stroke-width="0.244056"
   d="M 5.069,23.311 H 26.24"
   id="path7800"
   style="fill:#b3b3b3" />
</g><g
       id="Group_Green_Part"
       transform="matrix(0.9999999,3.019916e-7,3.019916e-7,-0.9999999,0,112)"
       style="stroke-width:0.976224">
	<linearGradient
   id="SVGID_2_-2"
   gradientUnits="userSpaceOnUse"
   x1="6.8701"
   y1="89.808601"
   x2="24.5488"
   y2="89.808601">
		<stop
   offset="0.01"
   style="stop-color:#00FF00"
   id="stop7803" />
		<stop
   offset="0.5"
   style="stop-color:#EBEBEB"
   id="stop7805" />
		<stop
   offset="1"
   style="stop-color:#00FF00"
   id="stop7807" />
	</linearGradient>
	<path
   fill="url(#SVGID_2_)"
   stroke="#4c4c4c"
   stroke-width="0.244056"
   d="m 7.095,82.996 h 17.23 0.112 v 0.111 l 0.111,0.112 v 0.113 13.063 0.111 h -0.111 v 0.112 H 24.325 7.095 6.983 L 6.87,96.509 v 0 -0.112 -13.063 -0.113 -0.113 l 0.112,-0.11 z"
   id="cap_head"
   style="fill:#ff0000" />
</g><g
       id="Group_Pipe"
       transform="matrix(0.9999999,3.019916e-7,3.019916e-7,-0.9999999,0,112)"
       style="stroke-width:0.976224">
	<linearGradient
   id="SVGID_3_-1"
   gradientUnits="userSpaceOnUse"
   x1="0"
   y1="18.0742"
   x2="31.0811"
   y2="18.0742">
		<stop
   offset="0.01"
   style="stop-color:#4D4D4D"
   id="stop7813" />
		<stop
   offset="0.51"
   style="stop-color:#F5F5F5"
   id="stop7815" />
		<stop
   offset="1"
   style="stop-color:#4D4D4D"
   id="stop7817" />
	</linearGradient>
	<path
   fill="url(#SVGID_3_)"
   stroke="#4c4c4c"
   stroke-width="0.244056"
   d="m 0,15.428 h 31.081 v 5.293 H 0 Z"
   id="path7820"
   style="fill:#808080" />
	<linearGradient
   id="SVGID_4_-6"
   gradientUnits="userSpaceOnUse"
   x1="0"
   y1="28.434601"
   x2="31.0811"
   y2="28.434601">
		<stop
   offset="0.01"
   style="stop-color:#4D4D4D"
   id="stop7822" />
		<stop
   offset="0.51"
   style="stop-color:#F5F5F5"
   id="stop7824" />
		<stop
   offset="1"
   style="stop-color:#4D4D4D"
   id="stop7826" />
	</linearGradient>
	<path
   fill="url(#SVGID_4_)"
   stroke="#4c4c4c"
   stroke-width="0.244056"
   d="m 0,25.788 h 31.081 v 5.293 H 0 Z"
   id="path7829"
   style="fill:#808080" />
</g><g
       id="Group_Layer_5"
       transform="matrix(0.9999999,3.019916e-7,3.019916e-7,-0.9999999,0,112)"
       style="stroke-width:0.976224">
	<linearGradient
   id="SVGID_5_"
   gradientUnits="userSpaceOnUse"
   x1="6.9829001"
   y1="103.6592"
   x2="24.549801"
   y2="103.6592">
		<stop
   offset="0.01"
   style="stop-color:#4D4D4D"
   id="stop7832" />
		<stop
   offset="0.51"
   style="stop-color:#F5F5F5"
   id="stop7834" />
		<stop
   offset="1"
   style="stop-color:#4D4D4D"
   id="stop7836" />
	</linearGradient>
	<path
   fill="url(#SVGID_5_)"
   stroke="#4c4c4c"
   stroke-width="0.244056"
   d="m 6.983,96.621 1.576,5.406 v 8.671 l 14.302,-0.226 v -8.56 l 1.688,-5.293 z"
   id="path7839"
   style="fill:url(#SVGID_5_)" />
</g></g><g
     id="photo"
     transform="matrix(0.56888889,0,0,0.5162431,273.10321,135.04724)"
     style="stroke-width:1.04975"><g
       id="opt_h"
       transform="matrix(0.9999999,3.019916e-7,3.019916e-7,-0.9999999,0,112)"
       style="fill:#ff0000;stroke-width:1.04975">
	<linearGradient
   id="SVGID_1_-31"
   gradientUnits="userSpaceOnUse"
   x1="3.3778999"
   y1="97.180702"
   x2="30.627899"
   y2="97.180702">
		<stop
   offset="0.01"
   style="stop-color:#FFFF00"
   id="stop2678" />
		<stop
   offset="0.5"
   style="stop-color:#FFFFBD"
   id="stop2680" />
		<stop
   offset="1"
   style="stop-color:#FFFF00"
   id="stop2682" />
	</linearGradient>
	<path
   fill="url(#SVGID_1_)"
   stroke="#4c4c4c"
   stroke-width="0.262438"
   d="m 6.756,81.867 -3.378,3.377 3.378,3.266 v 17.115 l -3.265,3.379 3.265,3.49 H 27.25 l 3.378,-3.49 -3.378,-3.379 V 88.51 l 3.378,-3.377 -3.378,-3.266 z"
   id="opt_head"
   style="fill:#ff0000" />
	<path
   fill="none"
   stroke="#4c4c4c"
   stroke-width="0.262438"
   d="M 10.247,88.623 H 23.872"
   id="path2687"
   style="fill:#ff0000" />
	<path
   fill="none"
   stroke="#4c4c4c"
   stroke-width="0.262438"
   d="M 10.247,105.738 H 23.872"
   id="path2689"
   style="fill:#ff0000"
   inkscape:label="path2689" />
</g><g
       id="Group_Sensor"
       transform="matrix(0.9999999,3.019916e-7,3.019916e-7,-0.9999999,0,112)"
       style="stroke-width:1.04975">
	<linearGradient
   id="SVGID_2_-06"
   gradientUnits="userSpaceOnUse"
   x1="3.3778999"
   y1="40.879902"
   x2="30.627899"
   y2="40.879902">
		<stop
   offset="0.01"
   style="stop-color:#4D4D4D"
   id="stop2692" />
		<stop
   offset="0.51"
   style="stop-color:#F5F5F5"
   id="stop2694" />
		<stop
   offset="1"
   style="stop-color:#4D4D4D"
   id="stop2696" />
	</linearGradient>
	<path
   fill="url(#SVGID_2_)"
   stroke="#4c4c4c"
   stroke-width="0.262438"
   d="M 3.378,0.006 V 54.505 L 6.756,81.754 H 27.25 L 30.628,54.392 V 0.006 Z"
   id="opt_body"
   style="fill:#808080" />
	<linearGradient
   id="SVGID_3_-5"
   gradientUnits="userSpaceOnUse"
   x1="0"
   y1="44.257801"
   x2="34.005901"
   y2="44.257801">
		<stop
   offset="0.01"
   style="stop-color:#4D4D4D"
   id="stop2701" />
		<stop
   offset="0.51"
   style="stop-color:#F5F5F5"
   id="stop2703" />
		<stop
   offset="1"
   style="stop-color:#4D4D4D"
   id="stop2705" />
	</linearGradient>
	<path
   fill="url(#SVGID_3_)"
   stroke="#4c4c4c"
   stroke-width="0.262438"
   d="M 0,34.011 H 34.006 V 54.505 H 0 Z"
   id="path2708"
   style="fill:#b3b3b3" />
	<linearGradient
   id="SVGID_4_-5"
   gradientUnits="userSpaceOnUse"
   x1="0"
   y1="17.008801"
   x2="34.005901"
   y2="17.008801">
		<stop
   offset="0.01"
   style="stop-color:#4D4D4D"
   id="stop2710" />
		<stop
   offset="0.51"
   style="stop-color:#F5F5F5"
   id="stop2712" />
		<stop
   offset="1"
   style="stop-color:#4D4D4D"
   id="stop2714" />
	</linearGradient>
	<path
   fill="url(#SVGID_4_)"
   stroke="#4c4c4c"
   stroke-width="0.262438"
   d="M 0,6.762 H 34.006 V 27.255 H 0 Z"
   id="path2717"
   style="fill:#b3b3b3" />
</g></g></svg>
